<?xml version="1.0" standalone="no"?>
<!DOCTYPE svg PUBLIC "-//W3C//DTD SVG 20010904//EN"
 "http://www.w3.org/TR/2001/REC-SVG-20010904/DTD/svg10.dtd">
<svg version="1.0" xmlns="http://www.w3.org/2000/svg"
 width="374.000000pt" height="418.000000pt" viewBox="0 0 374.000000 418.000000"
 preserveAspectRatio="xMidYMid meet">

<g transform="translate(0.000000,418.000000) scale(0.100000,-0.100000)"
fill="#000000" stroke="none">
<path d="M2497 2989 c2 -716 3 -783 19 -800 9 -10 21 -16 27 -12 5 3 7 2 4 -4
-8 -13 67 -86 78 -76 4 5 5 3 2 -3 -7 -12 65 -87 76 -79 4 3 5 2 2 -2 -8 -10
66 -83 77 -77 5 3 7 1 6 -5 -3 -8 285 -308 335 -350 16 -12 17 63 17 1088 l0
1101 -322 0 -323 0 2 -781z m428 -1128 c3 -5 2 -12 -3 -15 -5 -3 -9 1 -9 9 0
17 3 19 12 6z"/>
<path d="M578 2041 c-2 -947 -1 -1727 2 -1732 5 -6 390 -12 628 -9 l22 0 0
950 0 950 939 -938 c517 -516 946 -944 955 -951 15 -12 16 27 16 440 l-1 454
-309 315 c-171 173 -310 311 -311 305 0 -5 -4 -3 -8 5 -4 8 -440 447 -969 975
l-962 960 -2 -1724z"/>
</g>
</svg>
